<?xml version="1.0" standalone="no"?>
<!DOCTYPE svg PUBLIC "-//W3C//DTD SVG 20010904//EN"
 "http://www.w3.org/TR/2001/REC-SVG-20010904/DTD/svg10.dtd">
<svg version="1.0" xmlns="http://www.w3.org/2000/svg"
 width="468.000000pt" height="468.000000pt" viewBox="0 0 468.000000 468.000000"
 preserveAspectRatio="xMidYMid meet">
<metadata>
Created by potrace 1.14, written by Peter Selinger 2001-2017
</metadata>
<g transform="translate(0.000000,468.000000) scale(0.100000,-0.100000)"
fill="#000000" stroke="none">
<path d="M2131 4552 c-3 -52 -6 -81 -16 -144 -4 -24 -9 -56 -11 -73 -40 -254
-173 -574 -346 -832 -52 -76 -103 -149 -115 -163 -11 -14 -77 -90 -145 -170
-107 -126 -230 -274 -292 -351 -10 -13 -51 -73 -91 -134 -191 -287 -276 -532
-291 -839 -5 -96 -3 -124 8 -133 19 -16 238 -70 338 -83 90 -12 281 -16 340
-7 19 3 58 9 85 12 28 4 88 18 134 31 348 101 594 349 721 725 17 52 33 101
35 109 2 8 15 62 28 120 14 58 28 125 32 150 4 25 9 54 11 65 2 11 6 43 9 70
3 28 8 68 10 90 7 62 7 292 0 370 -5 60 -14 132 -30 248 -18 130 -94 377 -167
544 -69 160 -211 421 -237 437 -4 3 -9 -16 -10 -42z"/>
<path d="M2380 4454 c100 -108 145 -159 165 -185 11 -15 56 -73 101 -130 342
-438 587 -947 708 -1474 20 -90 54 -269 61 -320 2 -22 7 -62 11 -90 22 -189
20 -421 -7 -595 -16 -107 -19 -121 -39 -195 -81 -301 -235 -558 -463 -770
-154 -144 -251 -208 -494 -325 -57 -27 -103 -53 -103 -56 0 -7 208 3 219 11 4
2 25 6 46 9 207 25 451 129 650 276 123 91 291 279 376 421 101 169 194 415
215 572 3 23 10 62 15 87 9 47 5 393 -6 470 -46 326 -70 434 -146 662 -59 174
-114 300 -218 493 -85 158 -300 452 -430 588 -183 193 -409 392 -602 533 -116
84 -122 86 -59 18z"/>
<path d="M2634 3842 c6 -11 39 -267 53 -422 10 -100 9 -439 -1 -570 -11 -150
-19 -216 -41 -335 -22 -123 -25 -137 -37 -180 -6 -22 -12 -44 -14 -50 -6 -28
-55 -148 -84 -205 -82 -166 -205 -307 -363 -418 -52 -37 -226 -122 -249 -122
-8 0 -18 -4 -23 -9 -6 -5 -44 -16 -85 -25 -70 -15 -108 -20 -205 -31 -42 -5
-386 -6 -585 -1 -63 1 -121 0 -128 -2 -22 -8 12 -155 65 -282 112 -264 318
-496 568 -641 134 -78 342 -152 466 -165 62 -7 133 12 314 83 228 90 368 178
514 327 145 147 212 237 291 391 85 166 134 334 161 555 18 153 15 485 -6 635
-2 17 -7 55 -10 85 -9 72 -50 280 -71 350 -20 70 -72 229 -83 255 -5 11 -24
56 -42 100 -48 117 -147 306 -218 419 -71 112 -179 266 -187 266 -3 0 -3 -4 0
-8z"/>
</g>
</svg>
