<?xml version="1.0" encoding="utf-8"?>
<!-- Generator: Adobe Illustrator 22.1.0, SVG Export Plug-In . SVG Version: 6.00 Build 0)  -->
<svg version="1.1" id="Layer_1" xmlns="http://www.w3.org/2000/svg" xmlns:xlink="http://www.w3.org/1999/xlink" x="0px" y="0px"
	 viewBox="0 0 841.9 165.3" style="enable-background:new 0 0 841.9 165.3;" xml:space="preserve">
<style type="text/css">
	.st0{fill:none;stroke:#047F75;stroke-miterlimit:10;}
	.st1{fill:#047F75;}
	.st2{fill:#ABC60E;}
	.st3{fill:#FEFEFE;}
	.st4{fill:#231F20;}
	.st5{fill:none;stroke:#047F75;stroke-width:4;stroke-miterlimit:10;}
</style>
<g>
	<g>
		<g>
			<circle class="st0" cx="95.5" cy="80.6" r="72"/>
			<g>
				<g>
					<path class="st1" d="M74.1,77c-4.6-0.2-8.2-2.4-10.7-6.1c-6-9-0.7-20.6,10-22c4.3-0.5,8.1,0.8,11.2,3.9
						c-6.7,2.9-8.8,8.8-9.9,15.7c-1.6-4-4.1-6.5-7.7-7.8C70.5,65.7,73.2,71,74.1,77z M73,62.6c0.8-0.1,1.3-0.5,1.3-1.3
						c0-0.9-0.6-1.4-1.5-1.4c-0.8,0-1.3,0.5-1.3,1.4C71.6,62.1,72.1,62.6,73,62.6z"/>
					<path class="st1" d="M49.5,102.5c0.8-1.7,1.7-3.4,2.5-5.1c2.2-4.5,4.3-9,6.4-13.5c0.3-0.7,0.7-0.9,1.5-0.9
						c3.7-0.1,3.7-0.1,2.1,3.3c-4,8.4-7.8,17-12,25.3c-0.2,0.4-0.2,1-0.7,1c-0.5,0-0.5-0.6-0.7-1c-4.2-9.1-8.5-18.2-12.7-27.3
						c-0.6-1.3-0.6-1.3,0.8-1.3c3.2-0.1,3.2-0.1,4.5,2.7c2.5,5.3,5,10.5,7.5,15.8C48.9,101.8,49,102.2,49.5,102.5z"/>
					<path class="st1" d="M105.1,89.7c0-1.9,0-3.8,0-5.7c0-0.7,0.2-1,1-1.1c3.1-0.1,3.1-0.1,3.1,3c0,2.8,0,5.7,0,8.5
						c0.1,2.1,0.6,4.1,2.1,5.7c3.2,3.3,9.3,2,11-2.3c0.7-1.9,0.7-3.8,0.7-5.8c0-2.7,0-5.4,0-8.1c0-0.8,0.3-1,1-1.1
						c3.2-0.2,3.3-0.2,3.2,3.1c-0.1,3.8,0.3,7.5-0.5,11.3c-1,4.5-4.9,8.4-10.4,8.6c-7,0.2-11.2-5.4-11.3-11.1
						C105.2,93,105.2,91.3,105.1,89.7C105.2,89.7,105.2,89.7,105.1,89.7z"/>
					<path class="st1" d="M86,54.4c1.6,1.8,2.5,4,2.9,6.4c1.2,8.1-4.6,15.6-12.7,16.4c-0.3,0-0.6,0-0.9-0.1c0.6-3,1.7-5.9,2.8-8.7
						C80,63.3,82.7,58.7,86,54.4z"/>
					<path class="st1" d="M145.4,89.8c-0.1,2.4,0.3,5.2-0.5,8c-1.2,4.3-4.9,7.2-9.3,7.3c-0.9,0-1.2-0.3-1.1-1.2c0-0.2,0-0.4,0-0.6
						c0-1.9,0-1.9,1.9-2.1c2.6-0.3,4.8-2.9,4.9-5.8c0.1-2.7,0-5.4,0-8.1c0-0.7-0.2-1-0.9-0.9c-0.1,0-0.3,0-0.4,0
						c-3,0-3.3-0.4-2.8-3.5c0.1-0.6,0.4-0.7,0.8-0.7c2.2,0,4.3,0,6.5,0c0.7,0,0.9,0.3,0.9,1C145.4,85.3,145.4,87.3,145.4,89.8z"/>
					<path class="st1" d="M70.9,94c0-2.6,0-5.3,0-7.9c0-2.3,1.7-4,4-4c2.3,0,4.1,1.7,4.1,3.9c0,5.2,0,10.4,0,15.6
						c0,2.5-1.8,4.2-4.2,4.1c-2.2,0-4-1.8-4-4.2C70.8,99.1,70.8,96.6,70.9,94C70.8,94,70.8,94,70.9,94z M77.7,89.7
						c0-1.2,0-2.4,0-3.5c-0.1-1.6-1.2-2.7-2.7-2.7c-1.7,0-2.8,1-2.8,2.7c-0.1,2.3,0,4.6,0,7c0,0.6,0.2,0.9,0.8,0.9
						c1.3,0,2.6,0,3.9,0c0.6,0,0.8-0.2,0.8-0.8C77.7,92.1,77.7,90.9,77.7,89.7z"/>
					<path class="st2" d="M86,54.4c-3.2,4.3-5.9,8.9-7.9,14c-1.1,2.8-2.1,5.7-2.8,8.7c-0.4,0.1-0.8,0.1-1.2,0
						c-0.8-6.1-3.6-11.3-7.1-16.2c3.7,1.3,6.2,3.7,7.7,7.8c1.2-6.9,3.2-12.8,9.9-15.7C85.2,53.2,85.7,53.7,86,54.4z"/>
					<path class="st1" d="M86.3,97.6c0.1-2.4-0.3-5.2,0.5-7.9c1.3-4.5,4.5-7.2,9.5-7.5c0.1,0,0.3-0.1,0.4,0c1.1,0.9,0.3,2,0.5,3
						c0.1,0.5-0.1,0.8-0.7,0.8c-4-0.2-6.4,3.5-6.2,7.2c0.2,3.5,0,7.1,0,10.7c0,0.9-0.3,1.2-1.2,1.2c-3,0-3,0.1-3-2.9
						C86.3,100.8,86.3,99.4,86.3,97.6z"/>
					<path class="st2" d="M73,62.6c-0.9,0-1.4-0.5-1.4-1.3c-0.1-0.9,0.5-1.4,1.3-1.4c0.9,0,1.4,0.5,1.5,1.4
						C74.3,62.1,73.8,62.5,73,62.6z"/>
					<path class="st3" d="M77.7,89.7c0,1.2,0,2.4,0,3.5c0,0.6-0.2,0.8-0.8,0.8c-1.3,0-2.6,0-3.9,0c-0.7,0-0.9-0.3-0.8-0.9
						c0-2.3,0-4.6,0-7c0-1.7,1.2-2.7,2.8-2.7c1.5,0,2.6,1.1,2.7,2.7C77.8,87.4,77.7,88.6,77.7,89.7z"/>
				</g>
				<g>
					<path class="st4" d="M147,76.6h-1.7V76h4.1v0.6h-1.7v4.9H147V76.6z"/>
					<path class="st4" d="M154.6,79.1c0-0.8-0.1-1.7-0.1-2.4h0c-0.2,0.6-0.4,1.3-0.7,2.1l-1,2.7h-0.5l-0.9-2.6
						c-0.3-0.8-0.5-1.5-0.6-2.1h0c0,0.7-0.1,1.6-0.1,2.4l-0.1,2.4h-0.7l0.4-5.5h0.9l0.9,2.7c0.2,0.7,0.4,1.3,0.6,1.8h0
						c0.1-0.6,0.3-1.2,0.6-1.8l1-2.7h0.9l0.3,5.5h-0.7L154.6,79.1z"/>
				</g>
			</g>
		</g>
		<g>
			<g>
				<path class="st1" d="M199.1,12.9L211,83.7l11.2-70.6l8.4,1.5l-16.5,92.5l-7.6-7.4l-16-85L199.1,12.9z"/>
				<path class="st1" d="M240.4,41.3h6v62.6h-6V41.3z"/>
				<path class="st1" d="M272.3,77.8l-0.8,0.5l8.4,25l-5.2,2l-10.5-32.7h1.4c2.6,0,4.4-0.8,5.6-2.4c1-1.4,1.5-4.2,1.5-8.4
					c0-0.5,0-1.1,0-1.7c-0.1-4.8-0.6-8-1.8-9.7c-1.1-1.7-3.2-2.6-6.1-2.6h-1.6v56.3h-6V41.3h8.1c4.8,0,8.3,1.3,10.5,3.9
					c2.2,2.6,3.3,7.6,3.3,14.8c0,0.3,0,0.7,0,1c0,3-0.2,5.6-0.7,7.8c-0.5,2.4-1.2,4.3-2,5.5c-0.9,1.3-1.7,2.2-2.5,2.6
					C273.1,77.4,272.5,77.7,272.3,77.8z"/>
				<path class="st1" d="M314.4,41.4v39.5v6.2c0,3.6-0.3,6.7-0.9,9.3c-0.6,2.6-2,4.7-4.1,6.2c-2.1,1.6-5.1,2.4-9,2.4
					c-5.9,0-9.7-1.6-11.5-4.9c-1.8-3.3-2.8-7.9-2.9-14.1c0.1-1.3,0.2-3.2,0.2-5.5l0.2-39.2h6.2v39.9c0,4.7,0.1,8.1,0.4,10.3
					c0.3,2.2,1,3.9,2.1,5.1c1.1,1.3,2.9,1.9,5.4,1.9c2.4,0,4.1-0.7,5.2-2c1-1.3,1.7-3.1,1.9-5.4c0.2-2.2,0.3-5.7,0.3-10.3V41.4
					H314.4z"/>
				<path class="st1" d="M338.2,41.3v51.1c0,3-1,5.7-2.9,7.9c-2,2.3-4.4,3.4-7.4,3.4h-7.3v-6h3.6c2.9,0,4.9-0.4,5.8-1.3
					c1.4-1.1,2-2.9,2-5.5V47.6h-11.5l2.2-6.3H338.2z"/>
				<path class="st1" d="M389,103.9h-8.6V14.5H392c6.8,0,11.7,1.9,14.8,5.6c3.1,3.8,4.6,10.8,4.6,21.1c0,10.9-1.4,18.1-4.3,21.5
					c-2.9,3.5-7.7,5.2-14.6,5.2H389V103.9z M389,59.3h1.9c4.4,0,7.5-1.2,9.2-3.5c1.7-2.2,2.6-7.1,2.6-14.6c0-4.7-0.4-8.4-1.1-10.9
					c-0.8-2.5-2-4.2-3.6-5.2c-1.6-1-3.9-1.5-6.8-1.5H389V59.3z"/>
				<path class="st1" d="M422.8,78.8h-5l2.2-6.2h2.8V41.2h6v31.2h12.9V41.2h6.2v62.8h-6.2V78.8h-12.9v25.1h-6V78.8z"/>
				<path class="st1" d="M468.7,58.4l-7.8,46.7l-6.3-1.1l11.2-59.3l5.5-5.3l11.4,64.5l-5.8,1.1L468.7,58.4z M468.7,102.3l-5.9-7.9
					h11.8L468.7,102.3z"/>
				<path class="st1" d="M504.4,77.8l-0.8,0.5l8.4,25l-5.2,2l-10.5-32.7h1.4c2.6,0,4.4-0.8,5.6-2.4c1-1.4,1.5-4.2,1.5-8.4
					c0-0.5,0-1.1,0-1.7c-0.1-4.8-0.6-8-1.8-9.7c-1.1-1.7-3.2-2.6-6.1-2.6h-1.6v56.3h-6V41.3h8.1c4.8,0,8.3,1.3,10.5,3.9
					c2.2,2.6,3.3,7.6,3.3,14.8c0,0.3,0,0.7,0,1c0,3-0.2,5.6-0.7,7.8c-0.5,2.4-1.2,4.3-2,5.5c-0.9,1.3-1.7,2.2-2.5,2.6
					C505.1,77.4,504.6,77.7,504.4,77.8z"/>
				<path class="st1" d="M534.9,101.9l-5.8-42.2l-7.1,45.6l-5.8-1.2l10.2-59.2l5.2-5.2l4,34.3l4.3-29.2l5.4-5.2l8.6,64.4l-5.6,1.1
					l-5.5-45.6L534.9,101.9z"/>
				<path class="st1" d="M571.5,58.4l-7.8,46.7l-6.3-1.1l11.2-59.3l5.5-5.3l11.4,64.5l-5.8,1.1L571.5,58.4z M571.5,102.3l-5.9-7.9
					h11.8L571.5,102.3z"/>
				<path class="st1" d="M611.2,94.1l2.4,7.2l-1,1c-1.9,1.8-4.3,2.7-7.5,2.7c-0.1,0-0.1,0-0.2,0c-4,0-7-1.6-9-4.7
					c-2.1-3.1-3.5-7-4.1-11.5c-0.6-4.5-0.9-9.8-0.9-15.8c0-6.4,0.3-11.7,0.8-16.1c0.5-4.3,1.8-8.1,3.8-11.4c2-3.3,5.2-4.9,9.5-5
					c3.2,0,5.8,0.9,7.6,2.8l0.8,0.8l-2.4,7l-0.7-1.3c-1.2-2-3-3-5.4-3c-3.1,0-5.2,1.5-6.3,4.6c-1,3.1-1.6,7.4-1.7,13
					c0.1,2,0.2,4.9,0.2,8.5c0,3.9-0.1,7-0.2,9.2c0.1,3.8,0.4,6.8,0.7,8.9c0.4,2.2,1.1,4.1,2.3,5.5c1.1,1.5,2.8,2.3,5,2.3
					c2.5,0,4.3-1.1,5.4-3.3L611.2,94.1z"/>
				<path class="st1" d="M624.3,41.3h17.6l2.2,6.3h-13.7v24.9h12.9v6.3h-12.7v18.8h12.7v6.3h-19.1V78.8h-4.9l2.2-6.2h2.7V41.3z"/>
				<path class="st1" d="M679.9,41.4v39.5v6.2c0,3.6-0.3,6.7-0.9,9.3c-0.6,2.6-2,4.7-4.1,6.2c-2.1,1.6-5.1,2.4-9,2.4
					c-5.9,0-9.7-1.6-11.5-4.9c-1.8-3.3-2.8-7.9-2.9-14.1c0.1-1.3,0.2-3.2,0.2-5.5l0.2-39.2h6.2v39.9c0,4.7,0.1,8.1,0.4,10.3
					c0.3,2.2,1,3.9,2.1,5.1c1.1,1.3,2.9,1.9,5.4,1.9c2.4,0,4.1-0.7,5.2-2c1-1.3,1.7-3.1,1.9-5.4c0.2-2.2,0.3-5.7,0.3-10.3V41.4
					H679.9z"/>
				<path class="st1" d="M699.8,47.6v56.3h-6.1V47.6h-6l2.3-6.3h16.6l-2.4,6.3H699.8z"/>
				<path class="st1" d="M717,41.3h6v62.6h-6V41.3z"/>
				<path class="st1" d="M752.9,94.1l2.4,7.2l-1,1c-1.9,1.8-4.3,2.7-7.5,2.7c-0.1,0-0.1,0-0.2,0c-4,0-7-1.6-9-4.7
					c-2.1-3.1-3.5-7-4.1-11.5c-0.6-4.5-0.9-9.8-0.9-15.8c0-6.4,0.3-11.7,0.8-16.1c0.5-4.3,1.8-8.1,3.8-11.4c2-3.3,5.2-4.9,9.5-5
					c3.2,0,5.8,0.9,7.6,2.8l0.8,0.8l-2.4,7l-0.7-1.3c-1.2-2-3-3-5.4-3c-3.1,0-5.2,1.5-6.3,4.6c-1,3.1-1.6,7.4-1.7,13
					c0.1,2,0.2,4.9,0.2,8.5c0,3.9-0.1,7-0.2,9.2c0.1,3.8,0.4,6.8,0.7,8.9c0.4,2.2,1.1,4.1,2.3,5.5c1.1,1.5,2.8,2.3,5,2.3
					c2.5,0,4.3-1.1,5.4-3.3L752.9,94.1z"/>
				<path class="st1" d="M775,58.4l-7.8,46.7l-6.3-1.1l11.2-59.3l5.5-5.3l11.4,64.5l-5.8,1.1L775,58.4z M775,102.3l-5.9-7.9h11.8
					L775,102.3z"/>
				<path class="st1" d="M815.7,103.9h-18.8V41.3h6.2v56.3h10.5L815.7,103.9z"/>
			</g>
			<g>
				<path d="M323.6,123.9h4.6l2.4,18.2h-4l-0.4-3.2h-5.1l-1.3,3.2H316L323.6,123.9z M325.3,127.4c-0.2,0.5-0.4,1-0.6,1.7
					c-0.2,0.7-0.5,1.4-0.8,2.2c-0.3,0.8-0.6,1.6-0.9,2.4c-0.3,0.8-0.6,1.7-0.9,2.5h3.9c-0.1-0.8-0.1-1.6-0.2-2.5s-0.1-1.7-0.2-2.4
					c-0.1-0.8-0.1-1.5-0.2-2.2C325.4,128.5,325.3,127.9,325.3,127.4z"/>
				<path d="M354,141.6c-0.2,0.1-0.4,0.1-0.7,0.2c-0.3,0.1-0.7,0.2-1.2,0.3c-0.5,0.1-1,0.2-1.6,0.3c-0.6,0.1-1.2,0.1-1.8,0.1
					c-2.5,0-4.2-0.8-5.2-2.3c-1-1.5-1.3-3.9-0.8-7.2c0.5-3.3,1.4-5.6,2.8-7.2c1.4-1.5,3.4-2.3,5.9-2.3c0.6,0,1.1,0,1.6,0.1
					c0.5,0.1,0.9,0.2,1.4,0.2c0.4,0.1,0.8,0.2,1,0.3c0.3,0.1,0.5,0.2,0.6,0.2l-0.9,2.9c-0.1-0.1-0.3-0.1-0.5-0.2
					c-0.3-0.1-0.5-0.2-0.8-0.2s-0.6-0.1-1-0.2c-0.4-0.1-0.7-0.1-1-0.1c-1.6,0-2.8,0.5-3.5,1.6c-0.7,1.1-1.2,2.7-1.5,4.8
					c-0.2,1.1-0.2,2-0.2,2.8c0,0.8,0.1,1.5,0.4,2c0.2,0.5,0.6,0.9,1.1,1.2s1.1,0.4,1.9,0.4h0.8l0.7-4.8h-1.9l0.4-3h5.7L354,141.6z"
					/>
				<path d="M360.5,142h-3.7l2-14.2h3.3l-0.1,1.9h0c0.4-0.6,0.9-1.2,1.5-1.6c0.6-0.4,1.2-0.6,1.8-0.6c0.3,0,0.5,0,0.7,0.1
					c0.1,0.1,0.3,0.1,0.4,0.2l-0.8,3.2c-0.2,0-0.4-0.1-0.6-0.2c-0.3-0.1-0.5-0.1-0.8-0.1c-0.3,0-0.7,0.1-1,0.3
					c-0.3,0.2-0.8,0.6-1.3,1L360.5,142z"/>
				<path d="M379.9,134.9c-0.2,1.4-0.5,2.5-0.9,3.4c-0.4,0.9-0.9,1.7-1.5,2.3c-0.6,0.6-1.3,1.1-2.1,1.3c-0.8,0.3-1.7,0.4-2.6,0.4
					c-0.9,0-1.7-0.1-2.4-0.4c-0.7-0.3-1.3-0.7-1.7-1.3c-0.4-0.6-0.7-1.4-0.9-2.3s-0.1-2.1,0.1-3.4c0.2-1.3,0.5-2.4,0.9-3.4
					c0.4-0.9,0.9-1.7,1.6-2.3c0.6-0.6,1.3-1,2.1-1.3c0.8-0.3,1.6-0.4,2.5-0.4c0.9,0,1.8,0.1,2.5,0.4c0.7,0.3,1.3,0.7,1.8,1.3
					c0.5,0.6,0.8,1.3,0.9,2.3C380.2,132.5,380.2,133.6,379.9,134.9z M376.1,134.9c0.2-1.7,0.2-2.8,0-3.6c-0.3-0.7-0.8-1.1-1.6-1.1
					c-0.8,0-1.4,0.4-1.8,1.1c-0.5,0.7-0.8,1.9-1,3.6c-0.2,1.7-0.2,2.9,0,3.7c0.2,0.7,0.8,1.1,1.6,1.1c0.8,0,1.4-0.4,1.9-1.1
					C375.5,137.8,375.9,136.6,376.1,134.9z"/>
				<path d="M392.1,142h-3.2l0-1.9l-0.9,0.7c-0.1,0.1-0.3,0.3-0.5,0.4c-0.2,0.2-0.5,0.3-0.8,0.5c-0.3,0.2-0.7,0.3-1.1,0.5
					c-0.4,0.1-0.8,0.2-1.3,0.2c-1.3,0-2.2-0.4-2.6-1.2c-0.4-0.8-0.5-2.1-0.3-3.7l1.4-9.6h3.7l-1.1,7.7c-0.1,0.7-0.2,1.2-0.2,1.7
					c0,0.5,0,0.8,0,1.1c0.1,0.3,0.2,0.5,0.4,0.6c0.2,0.1,0.5,0.2,0.8,0.2c0.3,0,0.5-0.1,0.8-0.2c0.3-0.1,0.5-0.3,0.7-0.4
					c0.2-0.2,0.4-0.3,0.6-0.5c0.2-0.2,0.4-0.3,0.5-0.4l1.4-9.7h3.8L392.1,142z"/>
				<path d="M397.8,127.9h3.5l-0.1,1.8h0c0.1-0.2,0.3-0.4,0.6-0.6c0.3-0.2,0.6-0.5,0.9-0.7c0.3-0.2,0.7-0.4,1.2-0.6
					c0.4-0.2,0.9-0.2,1.4-0.2c0.6,0,1.2,0.1,1.7,0.4c0.5,0.3,0.9,0.7,1.2,1.3c0.3,0.6,0.5,1.3,0.6,2.2s0.1,2-0.1,3.2
					c-0.2,1.3-0.5,2.4-0.9,3.4c-0.4,1-0.9,1.8-1.5,2.4c-0.6,0.6-1.2,1.1-1.9,1.4c-0.7,0.3-1.5,0.5-2.2,0.5c-1,0-1.9-0.2-2.7-0.6
					l-1,6.5h-3.7L397.8,127.9z M403.3,130.7c-0.2,0-0.5,0.1-0.7,0.2c-0.2,0.1-0.5,0.2-0.7,0.4c-0.2,0.2-0.4,0.3-0.6,0.5
					c-0.2,0.2-0.3,0.4-0.4,0.5l-1,7.1c0.4,0.2,0.9,0.3,1.6,0.3c0.9,0,1.7-0.3,2.2-1c0.6-0.7,1-1.9,1.2-3.6c0.2-1.6,0.2-2.8-0.1-3.4
					C404.6,131,404.1,130.7,403.3,130.7z"/>
				<path d="M424.7,133c-0.2,1.1-0.2,2-0.2,2.8c0,0.8,0.1,1.5,0.4,2c0.2,0.5,0.6,0.9,1.1,1.2c0.5,0.3,1.1,0.4,1.9,0.4
					c0.7,0,1.3-0.1,1.9-0.3s1-0.3,1.3-0.4c0,0.5,0,1,0,1.4c0,0.5,0,1,0.1,1.4c-0.1,0.1-0.3,0.1-0.6,0.2c-0.3,0.1-0.6,0.2-0.9,0.3
					c-0.4,0.1-0.8,0.2-1.3,0.3c-0.5,0.1-1,0.1-1.6,0.1c-2.5,0-4.2-0.8-5.2-2.3c-1-1.5-1.3-3.9-0.8-7.2c0.5-3.3,1.4-5.6,2.8-7.2
					c1.4-1.5,3.4-2.3,5.9-2.3c0.6,0,1.1,0,1.6,0.1c0.5,0.1,0.8,0.2,1.2,0.2c0.3,0.1,0.6,0.2,0.8,0.3s0.4,0.2,0.5,0.2l-0.9,2.9
					c-0.3-0.1-0.7-0.2-1.2-0.4c-0.5-0.2-1.1-0.3-1.7-0.3c-1.6,0-2.8,0.5-3.5,1.6C425.4,129.2,424.9,130.8,424.7,133z"/>
				<path d="M447.3,134.9c-0.2,1.4-0.5,2.5-0.9,3.4c-0.4,0.9-0.9,1.7-1.5,2.3c-0.6,0.6-1.3,1.1-2.1,1.3c-0.8,0.3-1.7,0.4-2.6,0.4
					s-1.7-0.1-2.4-0.4c-0.7-0.3-1.3-0.7-1.7-1.3c-0.4-0.6-0.7-1.4-0.9-2.3s-0.1-2.1,0.1-3.4c0.2-1.3,0.5-2.4,0.9-3.4
					c0.4-0.9,0.9-1.7,1.6-2.3c0.6-0.6,1.3-1,2.1-1.3c0.8-0.3,1.6-0.4,2.5-0.4c0.9,0,1.8,0.1,2.5,0.4c0.7,0.3,1.3,0.7,1.8,1.3
					c0.5,0.6,0.8,1.3,0.9,2.3C447.6,132.5,447.6,133.6,447.3,134.9z M443.5,134.9c0.2-1.7,0.2-2.8,0-3.6c-0.3-0.7-0.8-1.1-1.6-1.1
					c-0.8,0-1.4,0.4-1.8,1.1c-0.5,0.7-0.8,1.9-1,3.6c-0.2,1.7-0.2,2.9,0,3.7c0.2,0.7,0.8,1.1,1.6,1.1c0.8,0,1.4-0.4,1.9-1.1
					C442.9,137.8,443.3,136.6,443.5,134.9z"/>
				<path d="M450.5,127.9h3.3l-0.2,1.9c0.1-0.1,0.3-0.3,0.5-0.5c0.2-0.3,0.5-0.5,0.8-0.7c0.3-0.2,0.7-0.5,1.1-0.6
					c0.4-0.2,0.9-0.3,1.4-0.3c0.8,0,1.5,0.2,1.9,0.5c0.4,0.3,0.7,0.9,0.8,1.7c0.1-0.2,0.3-0.4,0.5-0.6c0.2-0.2,0.5-0.5,0.9-0.7
					s0.7-0.4,1.2-0.6s0.9-0.3,1.4-0.3c1.2,0,2,0.4,2.4,1.1c0.4,0.7,0.5,2,0.3,3.8l-1.3,9.6h-3.7l1.2-9.3c0.1-0.6,0.1-1.1,0-1.4
					c-0.1-0.3-0.4-0.5-0.9-0.5c-0.2,0-0.5,0.1-0.7,0.2c-0.2,0.1-0.4,0.3-0.6,0.4c-0.2,0.2-0.4,0.3-0.5,0.5c-0.1,0.2-0.2,0.3-0.3,0.5
					l-1.3,9.7h-3.6l1.3-9.3c0.1-0.6,0.1-1.1,0-1.4c-0.1-0.3-0.4-0.5-0.9-0.5c-0.2,0-0.5,0.1-0.7,0.2c-0.2,0.1-0.4,0.3-0.6,0.4
					c-0.2,0.2-0.3,0.3-0.5,0.5c-0.1,0.2-0.2,0.3-0.3,0.5l-1.4,9.7h-3.7L450.5,127.9z"/>
				<path d="M470.8,127.9h3.5l-0.1,1.8h0c0.1-0.2,0.3-0.4,0.6-0.6c0.3-0.2,0.6-0.5,0.9-0.7c0.3-0.2,0.7-0.4,1.2-0.6s0.9-0.2,1.4-0.2
					c0.6,0,1.2,0.1,1.7,0.4c0.5,0.3,0.9,0.7,1.2,1.3s0.5,1.3,0.6,2.2s0.1,2-0.1,3.2c-0.2,1.3-0.5,2.4-0.9,3.4
					c-0.4,1-0.9,1.8-1.5,2.4c-0.6,0.6-1.2,1.1-1.9,1.4c-0.7,0.3-1.5,0.5-2.2,0.5c-1,0-1.9-0.2-2.7-0.6l-1,6.5h-3.7L470.8,127.9z
					 M476.3,130.7c-0.2,0-0.5,0.1-0.7,0.2c-0.2,0.1-0.5,0.2-0.7,0.4c-0.2,0.2-0.4,0.3-0.6,0.5c-0.2,0.2-0.3,0.4-0.4,0.5l-1,7.1
					c0.4,0.2,0.9,0.3,1.6,0.3c0.9,0,1.7-0.3,2.2-1c0.6-0.7,1-1.9,1.2-3.6c0.2-1.6,0.2-2.8-0.1-3.4C477.5,131,477,130.7,476.3,130.7z
					"/>
				<path d="M494.3,142h-3.1v-1.7c-0.5,0.5-1.2,0.9-1.9,1.4c-0.7,0.4-1.6,0.7-2.5,0.7c-0.6,0-1.1-0.1-1.7-0.4s-0.9-0.7-1.3-1.3
					c-0.3-0.6-0.5-1.3-0.6-2.2s-0.1-2,0.1-3.3c0.2-1.4,0.5-2.6,1-3.6s1-1.7,1.6-2.3c0.6-0.6,1.3-1,2-1.3c0.7-0.3,1.5-0.4,2.2-0.4
					c1,0,2,0.1,3.1,0.2c1.1,0.1,2.1,0.3,3.1,0.4L494.3,142z M488.8,139.2c0.5,0,0.9-0.1,1.3-0.4c0.4-0.3,0.8-0.6,1.1-0.9l1-7.4
					c-0.2,0-0.5,0-0.8-0.1c-0.3,0-0.6,0-0.9,0c-0.9,0-1.6,0.3-2.1,1c-0.5,0.6-0.9,1.8-1.1,3.5c-0.2,1.7-0.2,2.8,0.1,3.4
					C487.5,138.9,488,139.2,488.8,139.2z"/>
				<path d="M499.3,127.9h3.3l-0.2,1.8h0.1c0.1-0.1,0.3-0.2,0.6-0.5c0.3-0.2,0.6-0.5,1-0.7c0.4-0.2,0.8-0.5,1.3-0.6
					c0.5-0.2,1-0.3,1.6-0.3c1.3,0,2.2,0.4,2.6,1.2c0.4,0.8,0.5,2,0.3,3.7l-1.4,9.6h-3.6l1.2-8.6c0.1-1,0.1-1.7,0-2.1
					c-0.2-0.4-0.5-0.5-1.1-0.5c-0.3,0-0.5,0.1-0.8,0.2c-0.3,0.1-0.5,0.3-0.7,0.4c-0.2,0.2-0.4,0.3-0.6,0.5s-0.3,0.3-0.4,0.4
					l-1.4,9.7h-3.7L499.3,127.9z"/>
				<path d="M518.7,140.2L518.7,140.2c-0.2,0.1-0.3,0.2-0.6,0.5c-0.3,0.2-0.6,0.5-0.9,0.7c-0.3,0.3-0.8,0.5-1.2,0.7
					c-0.5,0.2-1,0.3-1.6,0.3c-1.3,0-2.2-0.4-2.6-1.2c-0.4-0.8-0.5-2.1-0.3-3.7l1.4-9.5h3.8l-1.2,8.6c-0.1,0.5-0.1,1-0.1,1.3
					c0,0.3,0,0.6,0.1,0.8c0.1,0.2,0.2,0.3,0.4,0.4s0.4,0.1,0.7,0.1c0.3,0,0.5-0.1,0.8-0.2c0.3-0.1,0.5-0.3,0.8-0.4
					c0.2-0.2,0.5-0.3,0.6-0.5c0.2-0.2,0.3-0.3,0.4-0.4l1.4-9.7h3.7l-2.2,15.3c-0.3,1.9-0.9,3.2-1.8,4.1s-2.4,1.3-4.2,1.3
					c-1,0-1.9-0.1-2.7-0.3c-0.8-0.2-1.4-0.4-1.8-0.5l0.7-2.6c0.4,0.1,0.9,0.3,1.5,0.4c0.6,0.1,1.3,0.2,1.9,0.2c0.3,0,0.6,0,0.9-0.1
					s0.5-0.2,0.7-0.3c0.2-0.2,0.4-0.5,0.6-0.8c0.2-0.3,0.3-0.8,0.4-1.4L518.7,140.2z"/>
				<path d="M547.6,134.9c-0.2,1.4-0.5,2.5-0.9,3.4c-0.4,0.9-0.9,1.7-1.5,2.3c-0.6,0.6-1.3,1.1-2.1,1.3s-1.7,0.4-2.6,0.4
					c-0.9,0-1.7-0.1-2.4-0.4c-0.7-0.3-1.3-0.7-1.7-1.3c-0.4-0.6-0.7-1.4-0.9-2.3s-0.1-2.1,0.1-3.4c0.2-1.3,0.5-2.4,0.9-3.4
					c0.4-0.9,0.9-1.7,1.6-2.3s1.3-1,2.1-1.3c0.8-0.3,1.6-0.4,2.5-0.4c0.9,0,1.8,0.1,2.5,0.4c0.7,0.3,1.3,0.7,1.8,1.3
					s0.8,1.3,0.9,2.3C547.8,132.5,547.8,133.6,547.6,134.9z M543.7,134.9c0.2-1.7,0.2-2.8,0-3.6c-0.3-0.7-0.8-1.1-1.6-1.1
					s-1.4,0.4-1.8,1.1c-0.5,0.7-0.8,1.9-1,3.6c-0.2,1.7-0.2,2.9,0,3.7s0.8,1.1,1.6,1.1c0.8,0,1.4-0.4,1.9-1.1
					C543.2,137.8,543.5,136.6,543.7,134.9z"/>
				<path d="M557.5,130.6H555l-2.5,17.7h-3.7l2.5-17.7h-1.5l0.4-2.7h1.5l0.2-1.6c0.2-1.7,0.7-3,1.4-3.7c0.7-0.8,1.7-1.1,2.9-1.1
					c0.9,0,1.6,0.1,2,0.2c0.4,0.1,0.7,0.3,0.9,0.3c-0.1,0.5-0.1,0.9-0.2,1.3s-0.2,0.9-0.3,1.3c-0.1-0.1-0.3-0.1-0.6-0.2
					c-0.3-0.1-0.6-0.1-1-0.1c-0.5,0-0.8,0.2-1,0.5c-0.2,0.4-0.4,1-0.5,1.9l-0.2,1.1h2.6L557.5,130.6z"/>
				<path d="M572.7,142l-2.5-18.2h4l0.9,12.5v2.7l0.7-2.7l4.5-12.5h4l-7.6,18.2H572.7z"/>
				<path d="M588.9,142h-3.7l1.9-13.9l3.8-0.5L588.9,142z M591.8,123.6c-0.1,0.6-0.4,1.2-0.8,1.6c-0.5,0.4-1,0.6-1.6,0.6
					c-0.6,0-1.1-0.2-1.4-0.6c-0.3-0.4-0.5-0.9-0.4-1.6c0.1-0.7,0.4-1.2,0.9-1.6c0.5-0.4,1-0.6,1.6-0.6c0.6,0,1,0.2,1.4,0.6
					C591.8,122.4,591.9,122.9,591.8,123.6z"/>
				<path d="M596.7,142h-3.7l2-14.2h3.3l-0.1,1.9h0c0.4-0.6,0.9-1.2,1.5-1.6s1.2-0.6,1.8-0.6c0.3,0,0.5,0,0.7,0.1s0.3,0.1,0.4,0.2
					l-0.8,3.2c-0.2,0-0.4-0.1-0.6-0.2s-0.5-0.1-0.8-0.1c-0.3,0-0.7,0.1-1,0.3c-0.3,0.2-0.8,0.6-1.3,1L596.7,142z"/>
				<path d="M614.7,142h-3.2l0-1.9l-0.9,0.7c-0.1,0.1-0.3,0.3-0.5,0.4c-0.2,0.2-0.5,0.3-0.8,0.5c-0.3,0.2-0.7,0.3-1.1,0.5
					c-0.4,0.1-0.8,0.2-1.3,0.2c-1.3,0-2.2-0.4-2.6-1.2c-0.4-0.8-0.5-2.1-0.3-3.7l1.4-9.6h3.7l-1.1,7.7c-0.1,0.7-0.2,1.2-0.2,1.7
					c0,0.5,0,0.8,0,1.1s0.2,0.5,0.4,0.6c0.2,0.1,0.5,0.2,0.8,0.2c0.3,0,0.5-0.1,0.8-0.2c0.3-0.1,0.5-0.3,0.7-0.4
					c0.2-0.2,0.4-0.3,0.6-0.5c0.2-0.2,0.4-0.3,0.5-0.4l1.4-9.7h3.8L614.7,142z"/>
				<path d="M620.4,127.9h3.5l-0.1,1.8h0c0.1-0.2,0.3-0.4,0.6-0.6c0.3-0.2,0.6-0.5,0.9-0.7c0.3-0.2,0.7-0.4,1.2-0.6s0.9-0.2,1.4-0.2
					c0.6,0,1.2,0.1,1.7,0.4c0.5,0.3,0.9,0.7,1.2,1.3s0.5,1.3,0.6,2.2s0.1,2-0.1,3.2c-0.2,1.3-0.5,2.4-0.9,3.4
					c-0.4,1-0.9,1.8-1.5,2.4c-0.6,0.6-1.2,1.1-1.9,1.4c-0.7,0.3-1.5,0.5-2.2,0.5c-1,0-1.9-0.2-2.7-0.6l-1,6.5h-3.7L620.4,127.9z
					 M625.9,130.7c-0.2,0-0.5,0.1-0.7,0.2c-0.2,0.1-0.5,0.2-0.7,0.4c-0.2,0.2-0.4,0.3-0.6,0.5c-0.2,0.2-0.3,0.4-0.4,0.5l-1,7.1
					c0.4,0.2,0.9,0.3,1.6,0.3c0.9,0,1.7-0.3,2.2-1c0.6-0.7,1-1.9,1.2-3.6c0.2-1.6,0.2-2.8-0.1-3.4
					C627.1,131,626.6,130.7,625.9,130.7z"/>
				<path d="M643.9,142h-3.1v-1.7c-0.5,0.5-1.2,0.9-1.9,1.4c-0.7,0.4-1.6,0.7-2.5,0.7c-0.6,0-1.1-0.1-1.7-0.4s-0.9-0.7-1.3-1.3
					c-0.3-0.6-0.5-1.3-0.6-2.2s-0.1-2,0.1-3.3c0.2-1.4,0.5-2.6,1-3.6s1-1.7,1.6-2.3c0.6-0.6,1.3-1,2-1.3c0.7-0.3,1.5-0.4,2.2-0.4
					c1,0,2,0.1,3.1,0.2c1.1,0.1,2.1,0.3,3.1,0.4L643.9,142z M638.4,139.2c0.5,0,0.9-0.1,1.3-0.4c0.4-0.3,0.8-0.6,1.1-0.9l1-7.4
					c-0.2,0-0.5,0-0.8-0.1c-0.3,0-0.6,0-0.9,0c-0.9,0-1.6,0.3-2.1,1c-0.5,0.6-0.9,1.8-1.1,3.5c-0.2,1.7-0.2,2.8,0.1,3.4
					C637.1,138.9,637.6,139.2,638.4,139.2z"/>
				<path d="M649.7,122.2l3.8-0.5l-1.7,12.3l4.4-6.1h4.2l-5.5,6.3l3.9,7.8h-4.4l-2.9-6.8l-0.9,6.8h-3.7L649.7,122.2z"/>
				<path d="M662.1,138.8c0.1,0,0.2,0.1,0.4,0.2c0.2,0.1,0.5,0.2,0.7,0.3c0.3,0.1,0.6,0.2,0.9,0.3c0.3,0.1,0.6,0.1,0.9,0.1
					c0.6,0,1-0.1,1.3-0.3c0.3-0.2,0.5-0.5,0.6-1.1c0.1-0.3,0-0.7-0.2-1c-0.2-0.3-0.5-0.6-0.8-0.9c-0.3-0.3-0.7-0.6-1.1-0.9
					c-0.4-0.3-0.8-0.7-1.1-1s-0.6-0.8-0.8-1.3c-0.2-0.5-0.2-1-0.2-1.7c0.2-1.3,0.7-2.2,1.7-2.9c0.9-0.7,2.2-1.1,3.7-1.1
					c0.9,0,1.7,0.1,2.3,0.2c0.6,0.1,1,0.3,1.2,0.3l-0.6,2.7c-0.2,0-0.6-0.1-1.1-0.3c-0.5-0.2-1.1-0.2-1.7-0.2
					c-1.1,0-1.7,0.4-1.9,1.1c-0.1,0.3,0,0.7,0.3,0.9s0.5,0.6,0.9,0.8c0.3,0.3,0.7,0.6,1.2,0.9c0.4,0.3,0.8,0.6,1.2,1
					c0.3,0.4,0.6,0.8,0.8,1.3c0.2,0.5,0.2,1.1,0.1,1.7c-0.1,0.6-0.2,1.1-0.5,1.6c-0.3,0.5-0.6,1-1.1,1.3c-0.4,0.4-1,0.7-1.6,0.9
					c-0.6,0.2-1.4,0.3-2.3,0.3c-0.6,0-1.1,0-1.6-0.1s-0.9-0.2-1.2-0.3c-0.4-0.1-0.7-0.3-0.9-0.4c-0.3-0.1-0.4-0.2-0.5-0.3
					L662.1,138.8z"/>
				<path d="M675.5,122.2l3.8-0.5l-1.1,8h0c0.1-0.1,0.3-0.2,0.5-0.5c0.2-0.2,0.5-0.5,0.9-0.7c0.3-0.2,0.8-0.5,1.2-0.6
					c0.5-0.2,1-0.3,1.6-0.3c1.3,0,2.2,0.4,2.6,1.2s0.5,2,0.3,3.7L684,142h-3.7l1.2-8.6c0.1-1,0.1-1.7,0-2.1
					c-0.1-0.4-0.5-0.5-1.1-0.5c-0.3,0-0.5,0.1-0.8,0.2c-0.3,0.1-0.5,0.3-0.8,0.4c-0.2,0.2-0.4,0.3-0.6,0.5s-0.3,0.3-0.4,0.4
					l-1.4,9.7h-3.7L675.5,122.2z"/>
				<path d="M697.9,142h-3.1v-1.7c-0.5,0.5-1.2,0.9-1.9,1.4c-0.7,0.4-1.6,0.7-2.5,0.7c-0.6,0-1.1-0.1-1.7-0.4
					c-0.5-0.3-0.9-0.7-1.3-1.3c-0.3-0.6-0.5-1.3-0.6-2.2s-0.1-2,0.1-3.3c0.2-1.4,0.5-2.6,1-3.6c0.5-1,1-1.7,1.6-2.3
					c0.6-0.6,1.3-1,2-1.3c0.7-0.3,1.5-0.4,2.2-0.4c1,0,2,0.1,3.1,0.2c1.1,0.1,2.1,0.3,3.1,0.4L697.9,142z M692.3,139.2
					c0.5,0,0.9-0.1,1.3-0.4c0.4-0.3,0.8-0.6,1.1-0.9l1-7.4c-0.2,0-0.5,0-0.8-0.1c-0.3,0-0.6,0-0.9,0c-0.9,0-1.6,0.3-2.1,1
					c-0.5,0.6-0.9,1.8-1.1,3.5c-0.2,1.7-0.2,2.8,0.1,3.4C691.1,138.9,691.6,139.2,692.3,139.2z"/>
			</g>
		</g>
	</g>
	<line class="st5" x1="204.8" y1="131.5" x2="301.5" y2="131.5"/>
	<line class="st5" x1="717.8" y1="131.5" x2="814.5" y2="131.5"/>
</g>
</svg>
